<?xml version="1.0" encoding="UTF-8"?>
<svg id="_圖層_1" data-name="圖層_1" xmlns="http://www.w3.org/2000/svg" version="1.1" xmlns:xlink="http://www.w3.org/1999/xlink" viewBox="0 0 336.39 117.18">
  <!-- Generator: Adobe Illustrator 29.5.1, SVG Export Plug-In . SVG Version: 2.1.0 Build 141)  -->
  <defs>
    <style>
      .st0 {
        fill: #898989;
      }

      .st1 {
        fill: none;
      }

      .st2 {
        fill: gold;
      }

      .st3 {
        fill: #8b5cf6;
      }

      .st4 {
        clip-path: url(#clippath);
      }
    </style>
    <clipPath id="clippath">
      <rect class="st1" x="0" y="0" width="100.98" height="118"/>
    </clipPath>
  </defs>
  <g id="d10f402f8f">
    <g class="st4">
      <path class="st3" d="M74.91,39.4h-6.69l3.98-4.6c.92.22,1.86.33,2.85.33,6.65,0,12.08-5.4,12.13-12.06.05-6.7-5.37-12.17-12.13-12.2-6.66,0-12.1,5.41-12.13,12.06-.02,1.71.33,3.42,1.02,4.97l-9.79,11.51h-4.29l-12.23-15.12c1.54-2.48,2.38-5.36,2.41-8.31.03-4.24-1.6-8.23-4.58-11.24C32.48,1.7,28.52.03,24.17,0c-8.69,0-15.8,7.07-15.86,15.78-.03,4.24,1.6,8.24,4.58,11.26s6.96,4.69,11.29,4.72c1.14,0,2.27-.11,3.35-.35l6.44,8.02h-8.21c-11.6-.03-25.76,3.47-25.76,27.45v25.35c0,14.18,11.59,25.77,25.77,25.77h49.14c14.17,0,25.77-11.59,25.77-25.77v-25.35c0-21.31-14.16-27.48-25.77-27.48ZM77.5,103.11H23.18c-3.99,0-7.36-3.37-7.36-7.36l.03-28.86v-4.4c.15-3.88,3.44-7.1,7.33-7.1h54.32c3.99,0,7.36,3.37,7.36,7.36l-.03,28.88h.03v4.13c0,3.99-3.37,7.36-7.36,7.36Z"/>
    </g>
    <path class="st2" d="M39.38,87.79c-.03-4.68-.06-12.35-.08-17.03-.03-4.68,3.47-6.61,7.48-4.3,3.99,2.33,10.68,6.12,14.67,8.44s4.08,6.15.1,8.51c-3.98,2.37-10.7,6.23-14.68,8.59-3.97,2.36-7.47.46-7.48-4.21Z"/>
    <path class="st2" d="M87.42,86.31"/>
    <path class="st2" d="M112.69,40.54l5.65-1.21-.85-7.71,8.71-1.65,1.5,7.29,7.56-1.73.08,16.06-5.15-.27c.14.85.38,2.42.71,4.71l5-.21-.29,8.13-3.65,1.58c.19,2.43.29,4.89.29,7.35,0,4.33-.41,7.69-1.21,10.06-1.1,3.28-2.91,5.71-5.44,7.31-2.52,1.59-5.82,2.4-9.92,2.4-.95,0-1.66-.02-2.15-.06l.08-15.79c.57.1.99.15,1.27.15,1.25,0,2.23-.44,2.94-1.31.71-.89,1.23-2.21,1.56-3.98l.15-.92-6.92,2.92.15-16.83,6.92-.29c-.04-.71-.16-2.64-.35-5.79l-6.21-.27-.44-9.94ZM143.54,48.75l-6.94.79,1-14.21,8.21-.56.29,2c.53-.19,1.31-.44,2.35-.73l-3.15-4.71,14.94-1.77-.08,4.42c2.23-.09,4.3.12,6.21.65,2.53.57,4.56,1.89,6.1,3.96,1.55,2.07,2.33,4.63,2.33,7.67,0,1-.12,2.17-.35,3.5l-5.94-.06,5.85,3.06-5.92,7.21c1.08,2.06,1.63,3.97,1.63,5.73,0,2.04-.72,3.86-2.15,5.46-1.42,1.6-3.53,2.85-6.33,3.75-2.16.67-3.89,1.27-5.19,1.81-1.31.54-2.2,1.1-2.67,1.69-.2.18-.29.37-.29.56,0,.29.2.54.6.73.4.18.94.27,1.6.27,2.39,0,5.2-.57,8.44-1.71,3.23-1.14,6.3-2.88,9.21-5.21l-.08,15.13c-2.1,1.33-4.99,2.36-8.69,3.1-3.68.73-7.43,1.1-11.23,1.1-4.47,0-7.99-.47-10.56-1.42-1.96-.72-3.41-1.9-4.33-3.52-.92-1.61-1.38-3.36-1.38-5.27,0-1.43.28-2.76.85-4,1-2.23,3.2-4.38,6.6-6.42,3.4-2.04,6.96-3.52,10.67-4.44.8-.23,1.21-.57,1.21-1,0-.23-.16-.44-.46-.63-.31-.19-.74-.29-1.31-.29-1.53,0-3.63.48-6.29,1.44-2.67.95-5.69,2.3-9.06,4.06l-2.35-10.5c.86-.38,2.09-.85,3.71-1.44l-5-5.77,7.94-4.44ZM147.25,57.04c3.51-.71,6.7-1.06,9.56-1.06,2.43,0,4.5.21,6.21.63l-8.13-6.77,4.71-4.71,4.13,2.13c-.28-2.47-1.87-3.92-4.77-4.35-.86-.14-1.72-.21-2.58-.21-2.95,0-5.97.67-9.06,2l.23,1.79,2-1.08,5.13,4.35-7.42,7.29Z"/>
    <path class="st2" d="M226.26,31.12v7.42l-1.65.29.85,23.92,1.15-.21.08,10.21-.85.06.13,3.58-8.27-.08.06-3.06-11.21.65-.15-7.5,1.15-.21.65-24.56-1.79.27-.13-11.63,19.98.85ZM180.72,71.67c1.23,0,2.11-.59,2.63-1.77.53-1.19.77-3.41.73-6.65l4.56-.65c.19,2.86.29,5.79.29,8.79v2.27l1.56.65-.71-13.42-8.56-.21-.23-8.71,8.23-1.15-.23-3.35-6.71.92.08-12.71,6.06.44-.35-6.15,12.21-.06-.15,7.06,4.42.35-.06,8.06-4.44.58-.06,3.27,5.42-.77.44,12.85-6.06-.15v2.85l5.85-.85v11.85l-6.08-1.08v3.15c4.53,1,9.55,1.5,15.08,1.5,4.51,0,8.96-.35,13.33-1.06,4.39-.72,8.44-1.75,12.15-3.08-1.81-.38-3.49-1.23-5.06-2.56-2,2.14-4.41,3.52-7.21,4.15l-.5-14.29c.57,0,1.23-.17,2-.5-1.1-4.51-1.58-9.77-1.44-15.77,0,0-.27.26-.79.77l-.15-11.98c2.86-1.39,5.34-2.08,7.44-2.08,2.33,0,4.19.78,5.56,2.33,1.39,1.54,2.25,3.81,2.58,6.81.14,1.43.21,2.95.21,4.56,0,5.63-.72,10.84-2.15,15.65.19.04.48.06.85.06.53,0,1.03-.07,1.5-.21l-.65,12.21.5-.21.15,17.92c-4.28.33-8.78.5-13.5.5-18.7,0-32.49-3.24-41.4-9.71-.57,2.85-1.44,5.05-2.6,6.63-1.17,1.58-2.7,2.71-4.6,3.38l-.15-20.44ZM214.49,43.69l3.71-.71.06-3.08-3.85.65.08,3.15ZM214.63,53.33l3.42.56.08-3.56-3.58-.35.08,3.35ZM214.84,64.81l3.06-.63.08-3.73-3.23.65.08,3.71ZM232.32,42.4c.48,5.16,1.28,9.25,2.38,12.29.94-2.63,1.42-5.29,1.42-8,0-1.53-.24-2.66-.71-3.4-.47-.73-1.12-1.1-1.94-1.1-.33,0-.72.07-1.15.21Z"/>
    <path class="st3" d="M251.28,36.54l45.13.5-.42,10.29-16.21,1.21,2.27,37.77h-15.42l2.44-37.06-17.29,1.29-.5-14Z"/>
    <path class="st3" d="M336.39,51.1c-1.49,7.24-2.92,13.02-4.29,17.35-2.2,7.14-4.51,12.11-6.94,14.92-2.75,3.05-5.84,4.58-9.27,4.58-3.04,0-5.74-1.26-8.1-3.77-2.36-2.53-4.33-5.91-5.9-10.15-1.67-4.67-3.12-10.03-4.35-16.08-.47-2.38-.93-4.42-1.35-6.13l13.21-2.15c.67,7.71,1.32,13.43,1.96,17.15.65,3.71,1.61,7.06,2.9,10.06.19.57.43.95.71,1.15.29.18.63.27,1,.27.29,0,.57-.15.85-.46.29-.3.65-.79,1.08-1.46,1-1.72,2-5.13,3-10.21.28-1.48.78-4.82,1.5-10l.92-6.35,13.08,1.27Z"/>
    <path class="st0" d="M116.06,117.18c-.7,0-1.35-.06-1.98-.17-.61-.13-1.08-.26-1.42-.42v-2.15h2.38c0,.22.05.39.15.5.11.1.3.15.56.15.22,0,.38-.03.48-.1.09-.07.15-.17.15-.31,0-.11-.05-.21-.15-.29-.08-.08-.24-.17-.48-.25l-.94-.33c-.79-.3-1.37-.66-1.73-1.06-.35-.42-.52-.98-.52-1.69,0-.84.28-1.49.83-1.94.57-.44,1.51-.67,2.81-.67.63,0,1.21.06,1.77.19.55.13,1,.29,1.33.5v1.96h-2.17c0-.36-.22-.54-.67-.54-.22,0-.39.03-.48.08-.08.04-.13.14-.13.27,0,.13.05.22.15.29.11.07.29.15.54.23l.94.33c.76.25,1.32.58,1.67,1,.34.42.52.97.52,1.65,0,.92-.31,1.61-.94,2.08-.61.46-1.51.69-2.69.69Z"/>
    <path class="st0" d="M130.54,111.22h-1.85v-.83h-.69v4.88h.75v1.77h-4.54v-1.77h.75v-4.88h-.69v.83h-1.88v-2.63h8.15v2.63Z"/>
    <path class="st0" d="M133.38,115.26h.54v-4.88h-.54v-1.79h4.98c.93,0,1.64.2,2.13.58.5.39.75,1.01.75,1.85,0,.49-.1.91-.29,1.27-.2.35-.47.59-.83.73v.1c.69.11,1.04.54,1.04,1.29v.83h.52v1.77h-3.44v-2.54c0-.28-.04-.48-.13-.63-.08-.15-.22-.26-.4-.31-.18-.05-.43-.08-.75-.08v1.79h.71v1.77h-4.29v-1.77ZM137.54,112.16c.21,0,.36-.05.46-.17.11-.11.17-.28.17-.52v-.4c0-.23-.06-.41-.17-.52-.1-.11-.25-.17-.46-.17h-.58v1.77h.58Z"/>
    <path class="st0" d="M144.51,117.03v-1.77h.54v-4.88h-.54v-1.79h7.31v3.27h-2.42v-1.48h-1.31v1.71h.96v1.23h-.96v1.94h1.31v-1.71h2.42v3.48h-7.31Z"/>
    <path class="st0" d="M162.66,115.26h.44v1.77h-4.25v-1.77h.65l-.17-.88h-1.48l-.17.88h.65v1.77h-3.71v-1.77h.44l1.83-6.67h3.94l1.83,6.67ZM158.1,113.24h.98l-.44-2.15h-.1l-.44,2.15Z"/>
    <path class="st0" d="M177.86,110.39h-.54v4.88h.54v1.77h-4.1v-1.77h.52v-3.79l-1.83,5.56h-1.6l-1.9-5.52v3.75h.52v1.77h-3.56v-1.77h.54v-4.88h-.54v-1.79h4.98l1.13,3.4,1.08-3.4h4.77v1.79Z"/>
    <path class="st0" d="M180.55,117.03"/>
    <path class="st0" d="M191.22,108.6h3.31v1.79h-.44l-2.08,3.75v1.13h.54v1.77h-4.1v-1.77h.54v-1.13l-2.17-3.75h-.44v-1.79h4.19v1.79h-.38l.65,1.67h.1l.65-1.67h-.38v-1.79Z"/>
    <path class="st0" d="M201.43,117.18c-1.32,0-2.34-.34-3.06-1.04-.72-.69-1.08-1.8-1.08-3.31s.36-2.64,1.08-3.33c.72-.69,1.74-1.04,3.06-1.04s2.34.35,3.06,1.04c.72.7,1.08,1.81,1.08,3.33s-.36,2.62-1.08,3.31c-.72.7-1.74,1.04-3.06,1.04ZM201.43,115.26c.25,0,.43-.06.54-.19.13-.14.19-.34.19-.63v-3.27c0-.28-.06-.48-.19-.6-.11-.13-.29-.19-.54-.19s-.44.06-.56.19c-.11.13-.17.33-.17.6v3.27c0,.29.05.5.17.63.13.13.31.19.56.19Z"/>
    <path class="st0" d="M212.45,117.18c-1.14,0-2.02-.24-2.65-.73-.61-.5-.92-1.31-.92-2.44v-3.63h-.54v-1.79h4.02v1.79h-.44v4.17c0,.25.05.43.15.54.11.11.27.17.48.17s.36-.05.46-.17c.11-.11.17-.29.17-.54v-4.17h-.44v-1.79h3.73v1.79h-.54v3.63c0,1.13-.31,1.94-.92,2.44-.6.49-1.45.73-2.56.73Z"/>
    <path class="st0" d="M219.32,115.26h.54v-4.88h-.54v-1.79h4.98c.93,0,1.64.2,2.13.58.5.39.75,1.01.75,1.85,0,.49-.1.91-.29,1.27-.2.35-.47.59-.83.73v.1c.69.11,1.04.54,1.04,1.29v.83h.52v1.77h-3.44v-2.54c0-.28-.04-.48-.13-.63-.08-.15-.22-.26-.4-.31-.18-.05-.43-.08-.75-.08v1.79h.71v1.77h-4.29v-1.77ZM223.49,112.16c.21,0,.36-.05.46-.17.11-.11.17-.28.17-.52v-.4c0-.23-.06-.41-.17-.52-.1-.11-.25-.17-.46-.17h-.58v1.77h.58Z"/>
    <path class="st0" d="M230.25,117.03"/>
    <path class="st0" d="M239.54,117.18c-.7,0-1.35-.06-1.98-.17-.61-.13-1.08-.26-1.42-.42v-2.15h2.38c0,.22.05.39.15.5.11.1.3.15.56.15.22,0,.38-.03.48-.1.09-.07.15-.17.15-.31,0-.11-.05-.21-.15-.29-.08-.08-.24-.17-.48-.25l-.94-.33c-.79-.3-1.37-.66-1.73-1.06-.35-.42-.52-.98-.52-1.69,0-.84.28-1.49.83-1.94.57-.44,1.51-.67,2.81-.67.63,0,1.21.06,1.77.19.55.13,1,.29,1.33.5v1.96h-2.17c0-.36-.22-.54-.67-.54-.22,0-.39.03-.48.08-.08.04-.13.14-.13.27,0,.13.05.22.15.29.11.07.29.15.54.23l.94.33c.76.25,1.32.58,1.67,1,.34.42.52.97.52,1.65,0,.92-.31,1.61-.94,2.08-.61.46-1.51.69-2.69.69Z"/>
    <path class="st0" d="M254.02,111.22h-1.85v-.83h-.69v4.88h.75v1.77h-4.54v-1.77h.75v-4.88h-.69v.83h-1.88v-2.63h8.15v2.63Z"/>
    <path class="st0" d="M260.94,117.18c-1.32,0-2.34-.34-3.06-1.04-.72-.69-1.08-1.8-1.08-3.31s.36-2.64,1.08-3.33c.72-.69,1.74-1.04,3.06-1.04s2.34.35,3.06,1.04c.72.7,1.08,1.81,1.08,3.33s-.36,2.62-1.08,3.31c-.72.7-1.74,1.04-3.06,1.04ZM260.94,115.26c.25,0,.43-.06.54-.19.13-.14.19-.34.19-.63v-3.27c0-.28-.06-.48-.19-.6-.11-.13-.29-.19-.54-.19s-.44.06-.56.19c-.11.13-.17.33-.17.6v3.27c0,.29.05.5.17.63.13.13.31.19.56.19Z"/>
    <path class="st0" d="M267.9,115.26h.54v-4.88h-.54v-1.79h4.98c.93,0,1.64.2,2.13.58.5.39.75,1.01.75,1.85,0,.49-.1.91-.29,1.27-.2.35-.47.59-.83.73v.1c.69.11,1.04.54,1.04,1.29v.83h.52v1.77h-3.44v-2.54c0-.28-.04-.48-.13-.63-.08-.15-.22-.26-.4-.31-.18-.05-.43-.08-.75-.08v1.79h.71v1.77h-4.29v-1.77ZM272.07,112.16c.21,0,.36-.05.46-.17.11-.11.17-.28.17-.52v-.4c0-.23-.06-.41-.17-.52-.1-.11-.25-.17-.46-.17h-.58v1.77h.58Z"/>
    <path class="st0" d="M283.79,108.6h3.31v1.79h-.44l-2.08,3.75v1.13h.54v1.77h-4.1v-1.77h.54v-1.13l-2.17-3.75h-.44v-1.79h4.19v1.79h-.38l.65,1.67h.1l.65-1.67h-.38v-1.79Z"/>
  </g>
</svg>